<?xml version="1.0" encoding="UTF-8"?>
<svg width="349px" height="661px" viewBox="0 0 349 661" version="1.1" xmlns="http://www.w3.org/2000/svg" xmlns:xlink="http://www.w3.org/1999/xlink">
    <!-- Generator: Sketch 52 (66869) - http://www.bohemiancoding.com/sketch -->
    <title>Fill 15 Copy</title>
    <desc>Created with Sketch.</desc>
    <g id="Page-1" stroke="none" stroke-width="1" fill="none" fill-rule="evenodd" opacity="0.509695871">
        <g id="Leasing-enigues" transform="translate(0.000000, -536.000000)" fill="#000">
            <g id="Fill-15-+-Fill-15-Copy-Mask" transform="translate(-350.000000, 128.000000)">
                <g id="Fill-15-Copy" transform="translate(0.000000, 379.000000)">
                    <path d="M248.970734,0.391944964 C248.019063,0.661407127 247.042566,1.14317281 246.057793,1.77191786 C257.850239,5.66687094 269.237189,8.72894097 280.334501,11.0152866 C268.715839,4.31956012 258.677779,0 252.065734,0 C250.923729,0 249.889304,0.138813841 248.970734,0.391944964 Z M237.488616,11.3268811 C237.637035,11.3858314 237.793699,11.4532032 237.966854,11.503732 C263.511323,20.5483939 286.747061,26.4097391 308.490368,29.3740976 C305.670417,27.2939938 302.850466,25.2644188 300.063496,23.3022156 C281.48645,20.1273203 261.78802,14.8723212 240.391022,7.3435244 C239.426302,8.54779502 238.461582,9.87838775 237.488616,11.3268811 Z M231.367776,19.8362624 C241.421092,23.6099687 251.556678,27.2719797 261.659355,30.638796 C288.84938,39.6621826 311.851894,44.6326246 335.422067,48.9568293 C332.929305,47.0420523 330.370728,45.0953623 327.771016,43.1406942 C307.870057,39.2872054 286.488249,34.1412422 263.173112,26.3943736 C253.35015,23.1392527 243.510734,19.5729805 233.74536,15.9109695 C232.947348,17.171531 232.165789,18.4719838 231.367776,19.8362624 Z M225.246935,30.9493954 C244.274491,37.6917316 263.866318,44.5771834 283.350269,50.4528749 C309.256955,58.2447257 332.267601,62.2837667 353.784588,64.8677988 C351.585591,63.1186078 349.31191,61.3137608 346.938651,59.4612085 C327.786624,56.8851272 307.323496,52.9733001 284.752649,46.1991605 C265.525939,40.4029776 246.174757,33.5970345 227.37125,26.9262561 C226.657613,28.2381494 225.960572,29.5738952 225.246935,30.9493954 Z M449.269702,51.4046708 C456.239144,49.9775227 463.216902,48.2879106 470.202977,46.2866225 C476.265892,44.5642024 482.420292,42.6121263 489.015479,40.3237682 C499.070437,36.837918 509.133712,33.1224118 519.047285,29.3987036 C518.747882,29.3905016 518.440162,29.3740976 518.132442,29.3740976 C503.228815,29.3740976 475.866688,39.6183961 449.269702,51.4046708 Z M221.574431,40.8214321 C230.398545,43.6209304 239.18154,46.4840537 247.86585,49.3233177 C268.334834,56.019845 289.494615,62.9470128 310.498144,68.7368844 C334.379996,75.2982086 355.811162,79.6565186 375.819615,82.0026891 C374.00216,81.2948614 372.2176,80.2609557 370.531725,78.8453003 C369.618886,78.0897539 368.623809,77.2705825 367.587613,76.4116455 C350.34235,73.9223188 331.945758,69.969618 311.748159,64.4421994 C290.867986,58.6761872 269.765771,51.7728787 249.34613,45.0922577 C240.801624,42.2927593 232.174881,39.4773547 223.498795,36.717622 C222.849116,38.0696524 222.224109,39.429636 221.574431,40.8214321 Z M523.983117,39.6888734 C517.068022,42.3646413 510.709123,44.6710548 504.549459,46.7476476 C476.640035,56.1538747 449.328315,61.7188153 422.962959,63.4260537 C419.351835,65.1661236 415.865232,66.8815699 412.544658,68.539561 C442.612455,67.7598127 473.950371,61.9404279 506.06032,51.1142382 C512.278094,49.0212296 518.703405,46.6737768 525.684911,43.9733852 C528.366275,42.9309848 531.047638,41.8721687 533.737303,40.8215605 C533.02338,39.319519 532.292853,37.9652193 531.537423,36.717622 C529.013787,37.7107751 526.498452,38.7039282 523.983117,39.6888734 Z M216.677758,53.1977616 C236.445932,58.0849313 256.082702,63.7314297 275.33347,69.2890706 C296.530669,75.4121691 318.467018,80.3639624 340.132346,85.5257829 C383.684746,95.8736578 419.352872,99.5895223 452.360056,97.2307562 C480.82557,95.2193425 510.095936,88.5146305 542.30648,76.5430844 C541.986181,75.0082708 541.674095,73.5219249 541.36201,72.0275012 C509.307509,84.0152032 480.250675,90.7199153 452.015119,92.699017 C419.500702,95.0335493 384.292492,91.3580746 341.216434,81.1152133 C319.657872,75.9776267 297.7708,71.0258333 276.63109,64.9188908 C257.544578,59.4177957 238.088489,53.827843 218.476358,48.9568293 C217.876825,50.3543175 217.269079,51.7679616 216.677758,53.1977616 Z M417.228619,79.7918008 C409.274449,79.8496653 401.163507,79.4032826 392.838034,78.6841106 C391.006264,79.6595393 389.298263,80.5688373 387.821296,81.35414 C386.723885,81.9575832 385.560464,82.3295687 384.388792,82.55276 C395.725958,83.7183147 406.592805,84.5201501 417.269875,84.445753 C455.646266,84.2308281 495.788416,75.2618438 539.858144,57.1089504 C539.437332,55.5714103 539.01652,54.0752019 538.562703,52.6285915 C494.880783,70.6740224 455.142942,79.5851422 417.228619,79.7918008 Z M210.556918,66.7664585 C239.148193,71.5850515 267.714743,78.5931741 295.564245,85.4303669 C317.619665,90.8431446 340.449828,96.4431311 362.942071,100.862888 C409.533735,110.003563 447.339495,112.323325 481.939142,108.155894 C504.208853,105.486133 525.761515,99.9512621 545.978984,93.0489532 C545.723484,91.5187243 545.476226,89.9884955 545.212484,88.4745456 C525.060951,95.3931336 503.565982,100.952423 481.386932,103.605904 C447.281801,107.71636 409.93759,105.429156 363.840442,96.3780149 C341.455344,91.9745372 318.699359,86.3989693 296.685148,80.9943311 C269.033453,74.1978359 240.697677,67.2629689 212.246515,62.4199574 C211.677821,63.852512 211.117369,65.3094853 210.556918,66.7664585 Z M205.660245,80.2988346 C238.568585,84.0489745 271.814488,91.1839809 304.006534,98.132292 C325.989338,102.872729 348.737835,107.791743 371.165235,111.558118 C433.836809,122.142928 485.195885,122.694897 532.775893,113.287078 C537.946381,112.27243 543.141568,111.111672 548.42732,109.812923 C548.229722,108.286892 548.015657,106.768978 547.793359,105.251064 C542.408808,106.5904 537.114821,107.783626 531.853768,108.814509 C484.858321,118.084335 434.042641,117.540484 371.947395,107.061197 C349.618794,103.311057 326.92793,98.4082764 304.986292,93.675957 C273.033011,86.7844661 240.050572,79.6981628 207.282197,75.8830854 C206.730569,77.3685304 206.20364,78.8296239 205.660245,80.2988346 Z M201.987741,91.2725022 C202.226606,91.3127056 202.448997,91.3287869 202.696099,91.352909 C236.549021,94.9631745 270.78907,102.288234 303.908924,109.355992 C325.917442,114.05175 348.659028,118.924402 371.112329,122.655278 C433.802011,133.132285 485.174438,133.687092 532.782684,124.367943 C538.334234,123.282451 543.943441,122.036146 549.651489,120.620986 C549.462044,119.109338 549.280836,117.613771 549.074918,116.094083 C543.24332,117.549446 537.535272,118.835955 531.868408,119.945569 C484.853206,129.136066 434.007929,128.5893 371.886581,118.208782 C349.548594,114.485947 326.848191,109.629376 304.905567,104.941659 C271.769239,97.8739008 237.520954,90.5568816 203.552718,86.898372 C203.017331,88.3698165 202.498417,89.8332204 201.987741,91.2725022 Z M198.315236,101.167693 C199.847427,101.290041 201.379618,101.420546 202.911809,101.567364 C236.792998,104.952339 271.110779,112.081178 304.291773,118.965319 C326.34379,123.54931 349.128951,128.271961 371.617559,131.869007 C434.420911,141.966835 485.790494,142.072871 533.321362,132.219739 C539.087672,131.020724 544.919882,129.625951 550.875657,128.068047 C550.702667,126.542769 550.529678,125.017491 550.340214,123.459587 C544.2444,125.066431 538.272151,126.510143 532.365802,127.725471 C485.411565,137.456255 434.577425,137.333906 372.358942,127.350269 C349.98566,123.76138 327.241687,119.038729 305.239096,114.471052 C271.934538,107.554284 237.50143,100.400975 203.373114,97.0078439 C202.186902,96.8854955 201.000689,96.7957732 199.822715,96.6897379 C199.311984,98.190546 198.809492,99.6913541 198.315236,101.167693 Z M194.642732,114.65596 C201.049687,115.247608 207.514214,115.987167 214.036313,116.849986 C240.51949,120.367001 267.405672,126.004087 293.411823,131.443956 C322.518644,137.541212 352.62064,143.835683 382.451225,147.262307 C439.052847,153.827951 491.270764,150.557455 542.049377,137.261822 C545.339213,136.399003 548.694845,135.470446 552.099825,134.492584 C551.935333,132.947727 551.754392,131.394652 551.5899,129.816926 C547.962857,130.876961 544.393385,131.879474 540.873261,132.799815 C490.653919,145.931101 439.0035,149.176944 382.977599,142.67704 C353.360853,139.275067 323.374001,132.988813 294.365875,126.932644 C268.277479,121.459906 241.300826,115.814603 214.644933,112.264719 C208.394245,111.442986 202.217579,110.736296 196.073811,110.152866 C195.580335,111.689506 195.103309,113.185059 194.642732,114.65596 Z M188.521891,130.507167 C195.563506,131.436598 202.712187,132.529086 209.976169,133.768327 C230.631572,137.355604 251.608173,142.084287 271.909437,146.666218 C306.639835,154.476697 342.539717,162.572528 378.324298,165.320056 C430.465192,169.396507 480.670671,162.401318 536.311783,145.516658 C541.360333,143.97576 546.548891,142.328874 552.099825,140.478165 C551.943345,138.937267 551.7951,137.37191 551.63862,135.806553 C545.72531,137.779555 540.256734,139.516123 534.952875,141.13855 C479.88827,157.835693 430.251061,164.781965 378.686674,160.754431 C343.231525,158.023209 307.496359,149.976296 272.938913,142.190275 C252.579998,137.608344 231.545747,132.871508 210.75857,129.259773 C203.716955,128.044991 196.749463,126.97696 189.889035,126.063835 C189.403123,127.637345 188.950153,129.129326 188.521891,130.507167 Z M184.85911,142.007018 C184.85911,142.007018 176.659563,142.433843 164.038529,143.40024 C178.83731,145.292768 194.279516,147.926199 210.604369,151.364961 C226.51677,154.755404 242.684892,158.733738 258.333324,162.599325 C297.590513,172.279401 338.192296,180.501828 378.942562,182.104436 C440.018467,184.584855 494.577628,168.832585 535.336143,154.835937 C541.630162,152.677651 547.84169,150.454938 554.548161,147.990626 C554.399678,146.476604 554.251196,144.922316 554.094464,143.335814 C546.967292,145.937032 540.425802,148.272491 533.785323,150.567684 C473.847787,171.168045 426.127081,179.495164 379.124041,177.586531 C338.868718,176.000029 298.497908,167.833975 259.463443,158.20222 C243.798513,154.344685 227.580897,150.342191 211.577756,146.951749 C202.59455,145.051168 193.867064,143.4244 185.362302,141.974805 C185.139577,141.998965 184.9416,142.015072 184.85911,142.007018 Z M102.830123,150.061539 C141.190783,150.58386 177.421672,158.288086 209.194899,166.400375 C221.172803,169.493492 233.348825,172.904897 245.12861,176.185722 C288.070758,188.174608 332.465772,200.579719 377.347828,200.71846 C434.183023,201.053072 484.86004,182.837146 532.012202,164.22132 C537.526495,162.050425 543.032533,159.830564 548.563337,157.635186 C550.552775,156.81906 552.550468,156.027418 554.548161,155.227615 C554.399572,153.676976 554.267493,152.085531 554.11065,150.445118 C551.6837,151.43263 549.240241,152.395659 546.813291,153.366848 C541.298998,155.58671 535.801215,157.782088 530.295176,159.961144 C483.894213,178.266843 433.99316,196.131834 378.553048,196.131834 L377.364338,196.131834 C333.117912,195.984931 289.028329,183.677756 246.391615,171.770482 C234.587064,168.481496 222.394532,165.061929 210.358844,161.95249 C185.552779,155.627516 158.030841,149.531058 128.866173,146.870488 C120.413124,147.784549 111.596859,148.845512 102.830123,150.061539 Z M61.4880087,159.452263 C57.0758927,159.963433 52.6555297,160.647742 48.2599076,161.45572 C41.3489669,163.920879 36.0461808,166.666357 33.0525394,169.700398 C42.6519844,167.111569 52.3338988,165.190559 62.0158133,164.069283 C112.751024,158.157849 162.356404,170.219813 208.390855,184.128585 C217.058396,186.766882 225.874381,189.553583 234.393476,192.241348 C280.287729,206.78496 327.740656,221.823253 376.100747,220.182562 C430.373897,218.409956 477.472205,197.336559 527.316746,175.009971 L530.170189,173.74029 C538.144986,170.17859 546.358944,166.509708 554.548161,162.98923 C554.432704,161.422741 554.292506,159.790295 554.152308,158.116625 C545.460027,161.818486 536.734758,165.726463 528.265145,169.510771 L525.419948,170.780451 C476.004249,192.900922 429.318288,213.809426 375.944055,215.549053 C328.375671,217.148521 281.318598,202.250387 235.795457,187.83869 C227.268115,185.126191 218.435635,182.33949 209.743355,179.692948 C171.559995,168.166888 130.943787,157.885774 89.1235243,157.885774 C79.9611675,157.885774 70.7575759,158.380455 61.4880087,159.452263 Z M550.306307,168.831341 C540.192534,173.366284 530.498114,178.114059 522.341315,182.149668 C517.111755,184.728201 511.915085,187.347663 506.718415,189.950753 C462.95785,211.954234 421.631168,232.721656 373.701755,236.045099 C323.428907,239.581372 274.01943,222.153764 226.2298,205.290978 C220.367102,203.219965 214.49618,201.148953 208.617036,199.11887 C162.488368,183.213824 113.120004,168.086431 61.2684206,173.063409 C50.537955,174.086636 39.87327,176.141277 29.4141495,179.063614 C29.3483689,180.504318 29.3730366,182.075996 29.5292656,183.786832 C40.0952796,180.782636 50.8750807,178.678881 61.7206624,177.639282 C112.634872,172.760534 161.452323,187.724211 207.104082,203.473726 C212.96678,205.495623 218.821257,207.558449 224.675733,209.629462 C272.909381,226.639593 322.812213,244.247289 374.022435,240.637343 C422.881,237.240228 464.618811,216.276346 508.80695,194.076406 C513.987175,191.473316 519.175622,188.845668 524.388737,186.275321 C532.520868,182.247898 542.165953,177.532866 552.1975,173.02248 C552.575738,172.858764 552.945754,172.703233 553.323993,172.531331 C553.217099,171.016954 553.085538,169.387976 552.953977,167.67714 C552.082384,168.061874 551.186122,168.430236 550.306307,168.831341 Z M549.118759,179.094094 C540.777092,183.004072 531.966052,187.480714 521.401039,193.17973 C513.240534,197.59161 505.038856,202.197776 497.10892,206.650132 C456.932225,229.203341 418.995346,250.50989 374.404896,255.188911 C321.612768,260.7665 270.055833,240.771372 220.195229,221.431955 C216.703751,220.071963 213.212274,218.720065 209.720796,217.368168 C160.749531,198.538748 112.659369,181.927411 62.6176032,185.691676 C52.200813,186.468815 41.8993075,188.274043 31.8283713,190.945457 C32.1330521,192.370211 32.4871406,193.851631 32.8824022,195.365432 C42.7310038,192.75878 52.7772362,190.985933 62.9799263,190.23308 C112.050007,186.541671 159.58845,202.974914 208.024465,221.610049 C211.515943,222.945756 215.00742,224.305749 218.490663,225.657646 C268.870048,245.199443 320.970468,265.421236 374.890738,259.714125 C420.444638,254.93796 460.588395,232.392847 499.406378,210.592491 C507.31161,206.14823 515.513288,201.558255 523.640855,197.17066 C534.115287,191.51212 542.852216,187.075954 551.119771,183.198357 C552.65141,182.48598 554.215987,181.797888 555.772329,181.109797 C555.689983,179.814566 555.582933,178.163146 555.442945,176.244585 C553.326648,177.191723 551.218586,178.12267 549.118759,179.094094 Z M545.617765,191.58629 C525.873028,201.46178 506.778764,213.746529 488.310272,225.611918 C453.209432,248.183294 416.92292,271.470046 375.819615,278.179788 C378.405039,279.15007 380.916359,280.26836 383.353574,281.501768 C422.587799,273.344827 457.235777,251.110583 490.829825,229.501267 C509.183044,217.685213 528.178502,205.482692 547.692691,195.705874 C553.151724,192.97593 558.717797,190.459776 564.341506,188.091632 C561.294987,187.170687 558.956578,186.471756 557.433318,186.035951 C553.456376,187.795614 549.520603,189.637504 545.617765,191.58629 Z M551.101609,208.885131 C532.13219,218.510741 513.624636,230.164517 495.727401,241.450279 C465.450559,260.505225 434.332465,280.091746 400.302977,290.126261 C401.639084,291.295727 402.925706,292.489728 404.171089,293.740976 C437.779951,283.330269 468.394943,264.103584 498.209921,245.326693 C516.024679,234.098178 534.433263,222.518004 553.212988,212.974175 C566.66478,206.178184 580.644417,200.445344 594.945709,195.742943 C592.413704,194.916956 589.955927,194.140038 587.588874,193.379476 C575.110295,197.738397 562.903887,202.906949 551.101609,208.885131 Z M63.0471042,198.553847 C53.8020808,199.078438 44.581689,200.471882 35.5008757,202.701393 C35.9606637,204.144017 36.4450832,205.603035 36.9459237,207.103036 C45.6244225,204.98828 54.4589209,203.66041 63.3098402,203.152213 C114.453047,200.283357 163.921311,221.848952 211.698212,242.717826 C245.492631,257.463742 280.017785,272.537527 315.462515,279.053927 C317.966718,277.799827 320.536604,276.652285 323.180385,275.668678 C285.814398,270.037525 249.261251,254.094886 213.561996,238.49651 C168.240034,218.717802 121.497656,198.291552 72.6698105,198.275159 C69.4759259,198.275159 66.2656203,198.365323 63.0471042,198.553847 Z M553.200422,227.69665 C535.220446,237.093007 517.55231,248.197794 500.450407,258.932969 C472.360286,276.567567 443.548012,294.612845 412.544658,305.619068 C413.398112,306.933244 414.218741,308.280274 414.990132,309.651945 C446.075548,298.465023 474.838585,280.460813 502.895881,262.834428 C519.932133,252.156749 537.518207,241.117671 555.334056,231.787022 C577.138161,220.452255 599.918815,211.827975 623.101576,205.914184 C620.541215,204.977833 618.013678,204.066124 615.477935,203.170842 C594.190826,209.07642 573.289413,217.257165 553.200422,227.69665 Z M558.665484,247.286629 C541.50148,256.327957 524.534386,266.752746 508.125205,276.843876 C480.590598,293.779072 452.424238,311.096755 422.338004,322.392311 C422.822074,323.8246 423.281531,325.29758 423.683556,326.786836 C454.245657,315.344795 482.731996,297.848077 510.553764,280.733845 C526.897308,270.683404 543.798765,260.291167 560.823291,251.331219 C590.975162,235.445826 622.866407,224.475791 654.929947,218.583872 C652.452161,217.517793 649.908738,216.459852 647.316087,215.410049 C617.08217,221.635626 587.1108,232.304555 558.665484,247.286629 Z M83.7864807,226.539044 C71.2296468,227.010124 58.7467248,228.813221 46.5183888,231.769652 C47.1096851,233.174768 47.7256187,234.604251 48.3333399,236.017489 C60.0196544,233.239745 71.9605547,231.550356 83.9671546,231.103643 C131.459745,229.324911 177.531582,248.224947 222.034841,266.515828 C246.639337,276.611549 271.638031,286.894079 297.121259,293.740976 C298.410614,292.45769 299.765668,291.255625 301.145359,290.069804 C274.947648,283.296006 249.152347,272.721082 223.816943,262.300478 C180.849411,244.643118 136.493976,226.425336 90.2661027,226.425336 C88.1062287,226.425336 85.9545672,226.457824 83.7864807,226.539044 Z M560.732736,265.872539 C544.595992,274.465874 528.541662,284.180079 513.006544,293.577516 C484.293359,310.942875 454.896135,328.73059 423.562172,340.361645 C423.66931,341.945482 423.735242,343.537442 423.743483,345.145647 C456.000488,333.400881 486.073511,315.23142 515.437769,297.468071 C530.906956,288.103123 546.920078,278.437652 562.941442,269.884928 C601.396011,249.368138 641.301074,236.429403 680.637478,231.328633 C678.544152,230.110296 676.327204,228.89196 673.96191,227.649256 C636.043034,233.326705 597.712087,246.143607 560.732736,265.872539 Z M566.221009,285.520591 C551.404681,293.631428 536.555428,302.591739 522.200053,311.274337 C490.649506,330.322144 458.325217,349.794688 423.720861,361.818003 C423.325759,363.623134 422.864806,365.420097 422.338004,367.17622 C458.473381,355.103896 491.958282,334.912567 524.595359,315.186815 C538.926041,306.553225 553.717675,297.609251 568.451689,289.539254 C611.641285,265.892855 656.114962,251.435472 699,246.649016 C698.506122,245.260454 697.633605,243.822883 696.374217,242.336305 C653.538568,247.424977 609.237747,261.964041 566.221009,285.520591 Z M101.999191,253.383772 C86.6431063,253.689484 71.3284122,255.515711 56.3117338,258.685462 C56.9905473,260.093346 57.6693607,261.50123 58.3564524,262.884979 C72.7357084,259.9244 87.4047019,258.194714 102.090252,257.905092 C146.271075,257.028181 189.276391,273.367684 230.833021,289.192303 C248.697404,295.982328 266.793578,302.860848 285.121542,308.428025 C285.932807,307.068411 286.785463,305.740977 287.67951,304.445723 C269.078365,298.870502 250.675897,291.879351 232.530054,284.976695 C191.668795,269.433653 149.433352,253.351592 105.608492,253.351592 C104.399873,253.351592 103.199532,253.359637 101.999191,253.383772 Z M569.000627,304.293206 C555.684723,311.74639 542.270001,319.805657 529.3082,327.619214 C492.25919,349.896862 454.172577,372.788782 412.907276,384.599212 C411.6638,386.605838 410.305034,388.563323 408.872154,390.430714 C452.747932,378.980658 492.786226,354.958474 531.696334,331.558754 C544.63343,323.777958 558.015212,315.726881 571.281706,308.306459 C603.867377,290.074825 647.01848,271.00778 694.583512,263.202413 C695.349362,261.474257 695.999923,259.811624 696.551664,258.247275 C647.265528,265.856074 602.599196,285.504632 569.000627,304.293206 Z M573.376886,324.593996 C562.097455,331.084196 550.678061,337.961011 539.629159,344.623954 C491.950923,373.356868 442.658989,403.019303 387.710872,411.253385 C383.561359,413.680012 379.197784,415.72825 374.595447,417.35697 C378.522664,417.077291 382.449882,416.698901 386.393566,416.147769 C443.062413,408.218044 493.383493,377.89754 542.016776,348.580591 C553.040978,341.925873 564.443906,335.073736 575.673938,328.599987 C613.744074,306.883728 650.151112,291.781057 684.648057,283.357781 C685.817166,281.490512 686.920409,279.639695 687.982487,277.830006 C651.731879,286.129895 613.455913,301.734343 573.376886,324.593996 Z M122.475814,279.053927 C104.796993,279.119074 87.1346711,280.7966 69.7775832,283.891066 C70.5117946,285.340579 71.2377565,286.749375 71.9554687,288.133742 C88.6030939,285.251002 105.547703,283.695626 122.500563,283.630479 C122.698552,283.630479 122.913041,283.630479 123.111031,283.630479 C163.253421,283.630479 202.455361,297.75916 240.370369,311.42367 C252.686971,315.869929 265.119068,320.324332 277.666659,324.338994 C278.103886,322.881338 278.59061,321.431825 279.110333,319.998598 C266.628739,316.000223 254.23789,311.553963 241.970784,307.123991 C203.668047,293.329187 164.061879,279.053927 123.111031,279.053927 L122.475814,279.053927 Z M576.715863,341.16249 C567.489885,346.482131 558.132225,352.053158 549.06262,357.429563 C498.233328,387.612039 445.675708,418.816275 387.01133,426.893048 C351.144416,431.839665 314.726084,425.700994 279.492891,419.756944 C260.975095,416.651117 241.815349,413.407433 222.820205,411.7937 C151.111069,405.630702 78.7764421,407.958045 8.78740326,418.410815 C7.82447787,420.10564 6.93562366,421.784246 6.12084063,423.406088 C76.7847503,412.580294 149.92593,410.115094 222.416928,416.326748 C241.239239,417.940481 260.275534,421.143618 278.711028,424.257555 C314.289887,430.25026 351.070345,436.453805 387.63682,431.417986 C447.247663,423.203357 500.23325,391.755845 551.449359,361.330093 C560.502503,355.953687 569.860163,350.406988 579.04499,345.095457 C604.360874,330.555645 636.153873,313.915548 671.362376,302.392362 C672.843799,300.316405 674.325223,298.248556 675.740806,296.188817 C637.816359,307.890406 603.636623,325.698229 576.715863,341.16249 Z M84.4676007,311.179324 C85.4302269,312.970627 86.2283016,314.418393 86.7960042,315.465364 C105.538419,312.839756 124.519433,311.580118 143.401716,311.833682 C179.891008,312.308091 215.755004,324.26647 250.426002,335.832234 C258.604211,338.564176 266.831786,341.296117 275.100498,343.921726 C275.166318,342.32673 275.281504,340.756273 275.437828,339.202174 C267.539357,336.691078 259.690251,334.090008 251.898738,331.480758 C216.890409,319.792302 180.689082,307.711231 143.459309,307.228642 C141.970118,307.212283 140.472699,307.204104 138.983508,307.204104 C120.800569,307.204104 102.535354,308.570075 84.4676007,311.179324 Z M581.553287,358.783855 C574.741572,362.782596 567.929857,366.830102 561.118141,370.90199 C507.226423,402.981321 451.495706,436.157867 389.299633,444.683638 C349.567375,450.129078 308.664097,445.146907 269.121512,440.343541 C260.594498,439.303219 251.778852,438.238513 243.111646,437.287593 C162.105012,428.396084 80.9251989,428.713057 0.537062291,438.08409 C0.165964,439.782742 -0.0154618315,441.343227 0.00103142591,442.733033 C80.389168,433.288852 161.585474,432.923114 242.608601,441.822751 C251.242821,442.773671 260.033728,443.830249 268.544248,444.870571 C308.400205,449.722702 349.592115,454.729256 389.934623,449.210668 C453.079059,440.554857 509.222107,407.134485 563.51791,374.803201 C570.321379,370.747567 577.124848,366.691934 583.928316,362.709448 C606.309667,349.559117 630.266123,336.457551 655.245161,325.704839 C657.174873,323.242199 659.129324,320.74705 661.050788,318.21939 C631.107279,330.475694 603.324387,345.999262 581.553287,358.783855 Z M66.9778579,340.874576 C65.4957003,342.584602 63.98884,344.374537 62.4325744,346.212415 C95.2294299,340.411111 129.055561,337.862053 162.898161,338.828937 C195.604441,339.771849 227.948415,349.272883 259.213707,358.446295 C265.002356,360.156322 270.832176,361.842376 276.661996,363.504458 C276.266754,361.866348 275.920918,360.212257 275.63272,358.534194 C270.58515,357.095854 265.554048,355.625551 260.555883,354.139266 C228.994159,344.877956 196.361988,335.305004 163.046377,334.346111 C158.303473,334.202277 153.560568,334.13036 148.825898,334.13036 C121.249531,334.13036 93.7884433,336.439695 66.9778579,340.874576 Z M564.242334,375.397204 C557.140268,379.470198 550.013456,383.616799 542.894892,387.763401 C489.86448,418.670715 435.019371,450.624902 374.218754,459.179824 C367.529119,460.120375 360.534285,460.807386 353.407473,461.2245 C319.654098,463.187388 285.092358,458.901749 251.668929,454.746968 C244.484376,453.85549 237.308072,452.964011 230.131768,452.137962 C189.358813,447.410673 149.484959,444.793488 111.632017,444.376374 C73.713087,443.951082 36.8582293,445.717681 1.22416813,449.627101 C2.34598116,451.001123 3.76474471,452.399681 5.46396151,453.814596 C39.7617454,450.191431 75.1895909,448.56387 111.574277,448.980983 C149.270494,449.398097 188.979376,451.990746 229.603856,456.709857 C236.747165,457.527727 243.915221,458.419205 251.099773,459.310684 C284.72117,463.49 319.489125,467.791997 353.679677,465.82093 C360.938467,465.403816 368.057031,464.700448 374.870396,463.74354 C436.578361,455.041401 491.819405,422.85821 545.24575,391.730072 C552.372563,387.575291 559.458132,383.436868 566.560198,379.363875 C589.293409,366.335203 613.643351,353.371961 639.049117,342.85415 C641.037036,340.425076 643.074446,337.93875 645.136602,335.354281 C614.624938,347.303364 586.315656,362.728395 564.242334,375.397204 Z M548.601934,395.562695 C541.200278,399.676406 533.798622,403.863286 526.372293,408.050166 C474.379771,437.398974 420.610852,467.747756 361.422275,476.235334 C354.818353,477.178398 347.951261,477.869437 340.977256,478.308449 C306.279937,480.487253 270.81778,476.015828 236.506992,471.69074 C230.95575,470.999702 225.420956,470.292404 219.886162,469.625755 C177.310192,464.455161 139.273903,461.512151 103.614369,460.601606 C73.7034545,459.845528 44.8616679,460.634125 17.1383538,462.886098 C19.3752987,464.211265 21.793173,465.552693 24.3508564,466.89412 C49.8043293,465.064901 76.2035694,464.487681 103.491008,465.186849 C138.994285,466.073004 176.890765,469.007885 219.318702,474.162219 C224.853496,474.828868 230.380066,475.519906 235.923084,476.227204 C270.447698,480.568551 306.131904,485.064366 341.273322,482.877433 C348.362464,482.42216 355.361141,481.722992 362.0802,480.755538 C422.132303,472.146012 476.287754,441.569594 528.658583,412.025669 C536.076687,407.830659 543.478343,403.660039 550.871775,399.554458 C573.545515,386.977558 597.872291,374.473828 623.210627,364.425316 C625.069265,362.270902 627.075937,359.913242 629.222417,357.384854 C606.162146,366.091938 579.606649,378.376162 548.601934,395.562695 Z M43.3305508,369.966118 C41.9448272,371.737863 40.5591036,373.53366 39.17338,375.321439 C85.8288068,366.318406 134.509522,362.726814 183.239434,364.99561 C211.806659,366.318406 240.275488,373.677965 267.80957,380.797014 C273.983829,382.392387 280.199087,383.98776 286.455342,385.535031 C285.282806,383.763285 284.184067,381.935421 283.167323,380.067472 C278.419785,378.872947 273.696845,377.654371 268.990305,376.435795 C241.226636,369.252609 212.520019,361.836932 183.444423,360.490085 C173.916548,360.049153 164.388674,359.832695 154.893598,359.832695 C117.151079,359.832695 79.6627469,363.279983 43.3305508,369.966118 Z M534.008115,411.674726 C526.243862,415.889635 518.479608,420.178634 510.715355,424.492329 C459.560204,452.827713 406.676004,482.109804 348.884598,490.67957 C342.347146,491.650975 335.562687,492.375412 328.728826,492.836418 C292.79754,495.289626 256.084066,490.490228 220.572692,485.855475 C216.826419,485.36154 213.071912,484.875838 209.309172,484.390136 C164.288029,478.6111 127.895663,475.293506 94.7637902,473.95165 C76.1065277,473.194284 57.9926806,473.153123 40.3975482,473.712915 C43.6827413,475.178255 47.091438,476.651826 50.5660032,478.084237 C64.8924096,477.829037 79.5563922,477.977218 94.5826517,478.578171 C127.566321,479.911795 163.826949,483.204692 208.716356,488.975495 C212.470862,489.46943 216.217135,489.955132 219.988109,490.440835 C255.697088,495.116749 292.649336,499.940844 329.041702,497.462939 C336.007299,496.977236 342.898795,496.236334 349.55975,495.256697 C408.19098,486.57168 461.453924,457.067318 512.954885,428.542593 C520.719138,424.23713 528.466925,419.948131 536.222945,415.733222 C560.676638,402.462845 587.048753,390.180337 614.532399,381.108404 C613.371466,378.951556 612.589278,377.519146 612.292869,376.967586 C584.784522,386.113609 558.445342,398.412581 534.008115,411.674726 Z M21.9471293,397.994294 C20.7164691,399.717311 19.5188468,401.432389 18.3625219,403.139525 C78.3757872,392.475875 141.089897,388.815456 202.804612,392.753781 C227.194809,394.302114 251.667601,399.502927 275.339225,404.529055 C288.686518,407.355757 302.21552,410.214218 315.835377,412.461287 C312.036023,410.587406 308.418378,408.43562 305.015479,406.005927 C295.393203,404.203508 285.828744,402.162884 276.33862,400.161961 C252.493547,395.096132 227.847307,389.871499 203.110212,388.307285 C186.888625,387.259182 170.567924,386.758951 154.272002,386.758951 C109.728712,386.758951 65.1771637,390.570234 21.9471293,397.994294 Z M518.927273,428.40312 C510.788866,432.653191 502.65046,436.968522 494.495595,441.308326 C444.315612,467.99975 392.4487,495.59666 336.171084,504.056014 C329.719607,505.018602 323.045949,505.769094 316.347604,506.250388 C279.012973,508.975002 240.954196,503.868391 204.129758,498.941245 L198.797414,498.231541 C162.754724,493.410443 124.152838,488.67092 86.2092665,486.574436 C82.7366603,486.394971 79.3216565,486.26445 75.8984238,486.13393 C81.0085861,487.993846 86.1022905,489.788501 91.0807899,491.485267 C127.205769,493.704114 163.840942,498.182595 198.180245,502.767125 L203.512588,503.484987 C240.559207,508.444763 278.889539,513.584004 316.68499,510.82676 C323.506768,510.329151 330.287402,509.578659 336.870542,508.591598 C393.938135,500.018039 446.16712,472.225348 496.684489,445.346301 C504.822896,441.022813 512.953073,436.699324 521.075022,432.465568 C551.760682,416.493133 585.499274,400.692005 620.65324,390.911132 C619.879721,389.426462 619.139118,388.039683 618.447888,386.758951 C583.252777,396.662188 549.588246,412.455158 518.927273,428.40312 Z M502.783802,446.594218 C494.207809,450.878117 485.648325,455.276254 477.064078,459.68255 C427.712913,485.010594 376.686168,511.195418 321.738735,519.60818 C315.333566,520.587357 308.746807,521.346219 302.160049,521.868447 C263.085217,524.903895 223.936099,520.905589 186.074618,515.634353 L184.819998,515.446678 C171.093457,513.537283 157.201834,511.611568 143.227671,509.80825 L143.252433,510.110163 C143.252433,510.110163 143.351482,511.676846 143.524818,514.467501 C157.177072,516.238179 170.755039,518.139414 184.159671,519.991691 L185.422546,520.179366 C223.531649,525.491401 262.944898,529.522346 302.523228,526.437939 C309.233798,525.915711 315.92786,525.148689 322.448586,524.153193 C378.138887,515.618034 429.520557,489.253694 479.21014,463.746134 C487.769624,459.347998 496.320855,454.974341 504.872085,450.682282 C542.353878,431.914723 584.408434,413.400119 627.998249,405.72174 C627.247127,404.244814 626.50426,402.833168 625.786154,401.446 C582.155069,409.369174 540.207817,427.842979 502.783802,446.594218 Z M487.453776,464.725344 C478.465473,469.098564 469.477169,473.586654 460.488866,478.082949 C412.287854,502.18079 362.432402,527.074508 309.177527,535.484548 C302.856083,536.493753 296.394711,537.27322 289.982725,537.814744 C252.498536,540.965432 214.693337,536.116326 176.023878,530.430319 C170.327993,529.593417 164.615646,528.748311 158.919762,527.895 C154.524383,527.246811 150.10431,526.590418 145.676007,525.92582 C145.791242,527.419114 145.898245,528.978049 146.038173,530.651852 C150.120772,531.259016 154.18691,531.857975 158.236585,532.448729 C163.940701,533.310245 169.653047,534.155351 175.357163,535.000458 C214.298247,540.719285 252.399764,545.60121 290.361353,542.409498 C296.880342,541.867973 303.46518,541.063891 309.91009,540.046482 C363.881066,531.521573 414.049298,506.455552 462.56309,482.210022 C471.543162,477.713727 480.515003,473.242048 489.486845,468.868827 C533.78634,447.31451 584.530746,426.170439 636.567426,423.06898 C635.8184,421.55107 635.085837,420.057776 634.353274,418.580891 C582.226053,422.11721 531.646268,443.228461 487.453776,464.725344 Z M471.693677,483.248021 C462.206808,487.679944 452.563471,492.308478 443.241305,496.789554 C396.095189,519.465274 347.318518,542.902859 295.626611,551.250604 C289.367913,552.258231 282.993923,553.052865 276.718754,553.618119 C238.005411,557.083375 198.517966,551.799474 164.523352,546.605686 C158.651705,545.704555 152.771822,544.754272 146.900175,543.812181 C147.040172,545.368679 147.188405,546.933369 147.336637,548.555404 C152.837703,549.423766 158.330535,550.308513 163.815131,551.144106 C198.081504,556.411624 237.92306,561.711909 277.130511,558.1975 C283.520971,557.624054 289.985548,556.821228 296.367773,555.789024 C348.734961,547.342974 397.808096,523.74974 445.267147,500.934755 C454.572843,496.470063 464.199709,491.833337 473.670108,487.409605 C525.222018,463.365806 585.569046,439.887261 646.360771,444.589523 C645.636079,443.000257 644.903153,441.41099 644.170226,439.821724 C639.583259,439.526809 635.020997,439.395735 630.458736,439.387543 C574.212802,439.387543 519.235079,461.072019 471.693677,483.248021 Z M455.17657,499.770703 C445.164713,504.230077 434.971869,508.900642 425.132772,513.408752 C379.13746,534.535949 331.562628,556.369824 281.544476,564.573772 C275.341566,565.597235 269.097524,566.393262 262.968655,566.978098 C225.125973,570.552095 187.612359,565.914021 152.706598,560.35808 C151.176438,560.106276 149.654504,559.862594 148.124343,559.618912 C148.288877,561.170352 148.45341,562.738037 148.642623,564.330091 C149.744997,564.500668 150.863824,564.695613 151.974425,564.858067 C187.168119,570.462745 225.043707,575.149555 263.404668,571.510576 C269.640484,570.92574 275.991473,570.105345 282.293102,569.07376 C332.944709,560.764216 380.815701,538.808501 427.098946,517.559462 C436.92159,513.035107 447.081527,508.372665 457.076931,503.937659 C511.282459,479.853791 575.318857,456.476599 639.207176,465.525311 C644.093818,466.215742 649.013366,467.117364 653.809515,468.18144 C654.599275,468.352018 655.372582,468.571331 656.154116,468.758154 C655.463075,467.036137 654.747355,465.297874 654.015181,463.567735 C649.367113,462.552395 644.603871,461.683264 639.857083,461.009078 C629.993305,459.603847 620.145981,458.970275 610.339791,458.970275 C555.377409,458.970275 501.681935,479.1065 455.17657,499.770703 Z M438.407366,515.977553 C427.735621,520.553479 416.923567,525.368078 406.458159,530.026304 C355.847841,552.55204 303.529053,575.834944 248.139972,581.45609 C214.870208,584.830424 181.311572,581.694763 148.124343,576.493351 C148.322427,578.098217 148.512257,579.670162 148.726847,581.275029 C181.790274,586.40237 215.274628,589.43104 248.61042,586.056706 C304.742314,580.361489 357.416001,556.922214 408.348205,534.248337 C418.805359,529.59834 429.600907,524.783742 440.239638,520.232506 C498.822814,495.081374 567.854892,471.461037 635.351823,486.859521 C645.726443,489.238015 655.919487,492.546508 665.947461,496.324116 C665.485266,494.538188 664.957043,492.70288 664.3793,490.793501 C655.217941,487.460317 645.90802,484.530408 636.383508,482.341206 C621.106323,478.859881 605.771363,477.329086 590.518939,477.329086 C537.061171,477.329086 484.51954,496.184205 438.407366,515.977553 Z M496.906608,526.38097 C481.931423,531.144845 466.066624,536.666984 446.997563,543.755102 C439.995964,546.376057 433.002602,549.021739 426.009241,551.66742 C393.044065,564.137564 358.950397,577.028049 324.593139,586.086005 C300.334658,592.498279 278.291977,596.355534 257.22952,597.921514 C222.575724,600.476534 187.567729,596.850054 153.021016,591.575176 C153.251657,593.182365 153.490535,594.781313 153.721176,596.38026 C188.070196,601.572719 222.938159,605.100295 257.575481,602.537033 C278.934477,600.962811 301.240747,597.047862 325.771055,590.569652 C360.358954,581.44576 394.567943,568.505823 427.640201,556.002711 C434.633563,553.35703 441.618688,550.703107 448.61205,548.115119 C467.606976,541.035243 483.405878,535.53783 498.306928,530.790439 C538.240753,518.073036 590.6539,504.514949 642.070347,512.501445 C651.699605,514.001489 661.197068,516.268038 670.579211,518.905478 C670.801615,517.496096 670.883986,515.90539 670.826326,514.158087 C661.625402,511.594825 652.284445,509.394212 642.786982,507.927136 C631.839776,506.229284 620.867858,505.479263 609.994787,505.479263 C568.792436,505.479263 528.866848,516.185618 496.906608,526.38097 Z M502.259202,553.412964 C484.823894,558.601303 467.322668,564.096301 452.293367,568.853659 C412.668416,581.434966 371.683907,594.447254 329.702389,603.008842 C305.378651,607.98169 283.427961,610.865942 262.564918,611.82736 C226.581936,613.476688 190.104569,609.40724 154.245184,604.185749 C154.517096,605.810213 154.789007,607.426389 155.069159,609.025988 C190.656633,614.164599 226.886807,618.126301 262.770911,616.476973 C283.872907,615.515556 306.06255,612.589863 330.62524,607.575574 C372.845712,598.964258 413.953817,585.91053 453.677645,573.287783 C468.690466,568.555288 486.175213,563.052002 503.577562,557.88024 C545.979307,545.22434 595.014051,532.104307 642.392605,535.079729 C646.520719,533.911109 650.343962,532.692761 653.705779,531.391532 C651.250334,531.118026 648.794889,530.844519 646.298245,530.645605 C640.406825,530.164896 634.474206,529.957694 628.541587,529.957694 C584.961558,529.941118 540.870663,541.884243 502.259202,553.412964 Z M457.652235,595.278468 C409.374447,608.037956 371.653051,616.087284 335.422067,621.35257 C336.912478,622.647864 338.493466,624.018857 340.140329,625.423494 C375.325556,620.132975 412.16588,612.184579 458.796804,599.862464 C472.045817,596.388721 486.126495,592.570126 502.652765,587.960898 C503.237401,586.118889 503.805569,584.335757 504.357268,582.586269 C486.587617,587.548759 471.65057,591.602861 457.652235,595.278468 Z M463.851493,621.827297 C428.129605,628.863982 392.761807,633.945143 356.232925,637.311211 C357.921027,638.641609 359.625598,639.980022 361.371343,641.334464 C396.40152,637.960381 430.410602,633.007452 464.757304,626.235243 C473.642485,624.520152 482.552371,622.644771 491.445787,620.681231 C492.088089,618.982168 492.705687,617.307148 493.339755,615.632128 C483.515824,617.828087 473.658955,619.919858 463.851493,621.827297 Z M156.453018,622.462218 C193.498887,626.957411 231.336691,630.835174 268.807703,630.262922 C271.200179,630.232803 273.600992,630.172566 276.018477,630.104799 C279.619695,628.508516 283.12088,626.942352 286.455342,625.428895 C280.428302,625.73761 274.526305,625.94844 268.741014,626.031266 C231.07827,626.618578 192.848667,622.62787 155.469352,618.07997 C155.77779,619.555779 156.111236,621.031587 156.453018,622.462218 Z M161.626245,636.036942 C188.79822,639.142756 216.531196,642.217895 244.207259,643.782305 C247.27244,642.509305 250.345752,641.213299 253.402802,639.901955 C222.311949,638.521593 190.969051,635.06302 160.366025,631.543098 C160.788808,633.069165 161.195331,634.579894 161.626245,636.036942 Z M165.991105,649.053588 C169.281403,649.446036 172.58001,649.820645 175.85369,650.204173 C189.255838,651.773963 202.84909,653.343752 216.508812,654.797592 C219.749257,653.548895 223.081099,652.211006 226.471103,650.792844 C209.637407,649.098184 192.861872,647.144866 176.35222,645.218306 C172.264274,644.736666 168.151401,644.263945 164.038529,643.782305 C164.67,645.664269 165.326398,647.412444 165.991105,649.053588 Z M468.639636,648.062801 C441.566354,652.227143 413.194926,654.877179 379.492119,656.339861 C381.427091,657.879979 383.362064,659.402889 385.297036,660.917196 C416.721964,659.402889 443.5993,656.804478 469.300956,652.846632 C472.142181,652.407828 474.934419,651.934607 477.734822,651.46999 C478.461457,649.749188 479.179928,648.002573 479.873905,646.230147 C476.150921,646.866844 472.411608,647.486333 468.639636,648.062801 Z M173.217858,661.990105 C177.938896,664.266597 186.967883,663.539588 198.315236,660.954668 C188.586525,660.110162 178.781939,659.273001 168.935201,658.4799 C170.30093,660.080788 171.725672,661.277783 173.217858,661.990105 Z M405.19965,674.228475 C407.708917,675.689836 410.18495,677.107136 412.594511,678.436314 C430.084606,678.524436 447.474994,678.149917 464.790603,677.092449 C465.729501,675.71921 466.676708,674.265192 467.632224,672.75977 C446.968155,674.125665 426.179454,674.463467 405.19965,674.228475 Z M435.642126,690 L455.540465,690 C455.895793,689.72829 456.25112,689.449236 456.614711,689.155495 C448.045534,688.97925 439.476357,688.626761 430.90718,688.134745 C432.54334,688.825036 434.121655,689.441892 435.642126,690 Z" id="Fill-14" opacity="0.126023065"></path>
                </g>
            </g>
        </g>
    </g>
</svg>